<svg width="56" height="56" viewBox="0 0 56 56" fill="none" xmlns="http://www.w3.org/2000/svg">
<rect width="56" height="56" rx="16" fill="url(#paint0_linear_345_241)"/>
<path d="M27.4287 17.6523H28.0127C28.4189 17.6523 28.6221 17.8343 28.6221 18.1982V19.5186C30.1963 19.5186 31.7367 20.0052 33.2432 20.9785L32.9385 23.6191C32.9046 23.9238 32.7354 24.0762 32.4307 24.0762C32.363 24.0762 32.3122 24.0719 32.2783 24.0635C32.0752 24.0465 31.9017 23.8815 31.7578 23.5684C31.4362 22.8913 30.9707 22.32 30.3613 21.8545C29.7604 21.3805 29.1807 21.1351 28.6221 21.1182V27.0215C28.8844 27.0638 29.2526 27.123 29.7266 27.1992C30.209 27.2754 30.6787 27.3812 31.1357 27.5166C31.9652 27.7705 32.6042 28.1344 33.0527 28.6084C33.3828 28.9723 33.6325 29.3574 33.8018 29.7637C34.0303 30.2969 34.1445 30.8978 34.1445 31.5664C34.1445 33.3353 33.4251 34.8079 31.9863 35.9844C31.2331 36.6022 30.4036 37.055 29.498 37.3428C29.1426 37.4528 28.8506 37.529 28.6221 37.5713V39.7041C28.6221 40.068 28.4189 40.25 28.0127 40.25H27.4287C27.0225 40.25 26.8193 40.068 26.8193 39.7041V37.749H26.7812C25.5371 37.749 24.3438 37.5713 23.2012 37.2158L22.0205 33.915L22.0459 33.5723C22.0967 33.276 22.2871 33.1279 22.6172 33.1279H22.6807C22.9007 33.1702 23.0869 33.3395 23.2393 33.6357C23.6794 34.5837 24.1956 35.2396 24.7881 35.6035C25.389 35.9674 26.0661 36.1494 26.8193 36.1494V29.4209C26.5316 29.3701 26.1634 29.2939 25.7148 29.1924C25.2663 29.0824 24.8262 28.9215 24.3945 28.71C23.6328 28.3545 23.0658 27.8298 22.6934 27.1357C22.3294 26.4417 22.1475 25.6969 22.1475 24.9014C22.1475 23.361 22.6976 22.0788 23.7979 21.0547C24.6357 20.2845 25.6429 19.8105 26.8193 19.6328V18.1982C26.8193 17.8343 27.0225 17.6523 27.4287 17.6523ZM28.6221 29.7256V36.0352C29.57 35.8997 30.3359 35.3708 30.9199 34.4482C31.2669 33.8812 31.4404 33.1914 31.4404 32.3789V32.2646C31.4235 31.4521 31.123 30.8343 30.5391 30.4111C30.2513 30.208 29.917 30.0514 29.5361 29.9414C29.1722 29.8398 28.8675 29.7679 28.6221 29.7256ZM26.8193 26.7041V21.2959C26.8193 21.3044 26.7008 21.3594 26.4639 21.4609C26.1423 21.6133 25.8799 21.8037 25.6768 22.0322C25.4906 22.2184 25.3213 22.4681 25.1689 22.7812C25.042 23.0605 24.9489 23.3483 24.8896 23.6445C24.8389 23.8815 24.8135 24.11 24.8135 24.3301C24.8135 24.6094 24.8558 24.876 24.9404 25.1299C25.0843 25.6038 25.3382 25.972 25.7021 26.2344C25.973 26.4375 26.2734 26.5771 26.6035 26.6533C26.6543 26.6702 26.7262 26.6872 26.8193 26.7041Z" fill="#131313"/>
<defs>
<linearGradient id="paint0_linear_345_241" x1="28" y1="0" x2="28" y2="56" gradientUnits="userSpaceOnUse">
<stop stop-color="#E8FFA3"/>
<stop offset="1" stop-color="#CEEC76"/>
</linearGradient>
</defs>
</svg>
